<?xml version="1.0" encoding="utf-8"?>
<svg xmlns="http://www.w3.org/2000/svg" viewBox="0 0 500 500">
  <title>file_type_sql</title>
  <path d="M 114.652 237.198 C 156.57 251.925 200.788 259.035 245.217 258.139 C 289.645 259.017 333.863 251.925 375.781 237.18 C 408.501 224.419 420.104 210.235 420.104 202.073 L 420.104 139.669 C 408.659 147.323 396.389 153.66 383.522 158.557 C 339.164 174.443 292.313 182.185 245.217 181.412 C 198.12 182.167 151.269 174.443 106.911 158.592 C 94.027 153.695 81.756 147.358 70.329 139.669 L 70.329 201.985 C 70.329 210.306 81.967 224.419 114.652 237.198 Z" style="stroke-width: 1; fill: rgb(68, 193, 255);"/>
  <path d="M 114.652 354.895 C 129.45 360.548 144.722 364.901 160.292 367.903 C 188.272 373.309 216.709 375.977 245.217 375.855 C 273.706 375.995 302.161 373.327 330.141 367.92 C 345.694 364.919 360.966 360.565 375.781 354.913 C 408.501 342.151 420.104 327.968 420.104 319.806 L 420.104 260.299 C 410.643 265.986 400.707 270.831 390.403 274.78 C 343.816 291.281 294.63 299.268 245.217 298.355 C 195.785 299.233 146.617 291.228 100.03 274.693 C 89.726 270.743 79.79 265.898 70.329 260.211 L 70.329 319.77 C 70.329 327.951 81.967 342.081 114.652 354.895 Z" style="stroke-width: 1; fill: rgb(68, 193, 255);"/>
  <path d="M 245.217 496.01 C 341.762 496.01 420.104 465.396 420.104 427.656 L 420.104 377.856 C 411.503 383.034 402.48 387.51 393.159 391.232 L 390.403 392.337 C 343.816 408.891 294.648 416.913 245.217 416.053 C 195.785 416.948 146.6 408.908 100.03 392.337 C 99.082 391.986 98.169 391.583 97.274 391.232 C 87.935 387.51 78.93 383.034 70.329 377.856 L 70.329 427.656 C 70.329 465.396 148.671 496.01 245.217 496.01 Z" style="stroke-width: 1; fill: rgb(68, 193, 255);"/>
  <ellipse cx="245.217" cy="72.86" rx="174.888" ry="68.354" style="stroke-width: 1; fill: rgb(68, 193, 255);"/>
</svg>