<?xml version="1.0" encoding="utf-8"?>
<svg xmlns="http://www.w3.org/2000/svg" viewBox="0 0 500 500" xmlns:bx="https://boxy-svg.com">
  <defs>
    <bx:export>
      <bx:file format="svg"/>
    </bx:export>
  </defs>
  <path style="fill: rgb(247, 223, 23);" d="M 116.465 34.974 L 259.554 8.422 L 370.927 60.052 L 221.938 96.192 L 220.463 248.132 L 341.424 328.527 L 485.25 270.259 L 487.46 420.723 L 339.949 490.792 L 10.993 249.607 L 9.518 106.518 L 119.415 82.916"/>
  <path style="stroke: rgb(0, 0, 0); fill: rgb(27, 207, 30);" d="M 222.019 250.608 L 220.803 96.716 L 364.963 61.436 L 482.36 120.438 L 484.185 273.115 L 341.849 329.076 L 222.019 250.608 Z"/>
  <path style="fill: rgb(116, 250, 124);" d="M 222.628 94.282 L 307.786 75.426 C 281.986 67.608 260 129.68 287.713 138.078 L 318.127 156.934 C 299.919 130.923 205.591 166.572 221.411 189.173 L 222.628 94.282 Z"/>
  <g>
    <path style="fill: rgb(249, 247, 149);" d="M 217.07 15.509 L 120.744 34.913 L 118.665 152.029 C 100.585 141.904 190.821 75.404 221.228 92.432 L 193.509 75.8 C 170.855 72.223 202.763 13.25 217.07 15.509 Z"/>
    <path style="fill: rgb(249, 247, 149);" d="M 109.876 88.817 L 8.092 108.731 L 7.354 246.656 C -3.751 233.469 84.889 147.881 104.714 171.424 L 72.998 147.085 C 57.228 140.777 96.174 83.336 109.876 88.817 Z"/>
  </g>
  <polyline style="fill: none; stroke-width: 10px; stroke-linecap: round; stroke-linejoin: round; stroke: rgb(111, 111, 8);" points="120.94 34.974 260.34 8.422 369.501 60.789 222.724 96.93 222.724 249.607 341.473 330.739 485.299 273.946 488.986 419.985 342.21 494.479 11.042 249.607 11.042 108.731 115.815 174.024"/>
  <polyline style="fill: none; stroke-width: 4px; stroke: rgb(113, 113, 16);" points="340.735 491.529 342.21 332.214 224.199 250.344 224.199 95.454 117.99 34.975 118.727 172.162 57.751 133.785 13.255 105.781 117.252 86.604"/>
  <polyline style="fill: none; stroke-width: 12px; stroke-linecap: round; stroke-linejoin: round; stroke: rgb(10, 152, 12);" points="227.15 96.93 368.025 62.264 483.086 119.057 483.824 266.571"/>
  <polyline style="fill: none; stroke-width: 7px; stroke: rgb(7, 148, 9);" points="343.686 329.263 223.462 248.132 223.461 96.192 339.998 169.949 343.686 327.788 486.036 271.734 483.086 117.582 339.997 169.949"/>
</svg>