<?xml version="1.0" encoding="utf-8"?>
<svg xmlns="http://www.w3.org/2000/svg" viewBox="0 0 500 500" xmlns:bx="https://boxy-svg.com" width="500px" height="500px"><defs><bx:export><bx:file format="svg"/></bx:export></defs><polygon style="stroke: rgb(0, 0, 0); stroke-width: 6.963; stroke-linecap: round; stroke-linejoin: round; fill: rgb(145, 219, 255);" points="305.176 442.582 304.403 242.387 488.842 241.329 489.426 442.582"/><rect x="315.197" y="248.307" width="162.971" height="50.819" rx="15" ry="15" style="stroke-width: 1; fill: rgb(187, 233, 255);"/><rect x="9.527" y="54.12" width="481.135" height="391.852" style="stroke: rgb(0, 0, 0); fill: none; stroke-linecap: round; stroke-linejoin: round; stroke-width: 8.704;"/><polygon style="stroke: rgb(0, 0, 0); stroke-width: 6.963; stroke-linecap: round; stroke-linejoin: round; fill: rgb(255, 222, 77);" points="40.28 416.959 39.288 315.024 108.731 315.024 107.738 241.612 210.909 240.622 211.658 315.266 276.139 316.015 276.888 416.959"/><polygon style="stroke: rgb(0, 0, 0); stroke-width: 6.963; stroke-linecap: round; stroke-linejoin: round; fill: rgb(255, 222, 77);" points="39.775 223.082 38.783 81.108 275.635 80.357 276.383 223.082"/><path style="fill: rgb(255, 239, 167); stroke-width: 1.741;" d="M 42.273 84.522 L 43.05 176.081 C 42.401 128.667 94.355 84.34 147.855 84.29 L 42.273 84.522 Z"/><polygon style="stroke: rgb(0, 0, 0); stroke-width: 6.963; stroke-linecap: round; stroke-linejoin: round; fill: rgb(255, 222, 77);" points="306.057 223.673 305.404 81.7 461.165 80.949 461.658 223.673"/><path style="stroke-width: 1.741; fill: rgb(238, 250, 255);" d="M 308.038 245.185 L 308.248 309.46 C 307.502 276.176 370.227 245.058 431.654 245.023 L 308.038 245.185 Z"/><polygon style="stroke: rgb(0, 0, 0); stroke-width: 6.963; stroke-linecap: round; stroke-linejoin: round; fill: rgb(145, 219, 255);" points="305.672 442.941 304.899 305.901 489.339 305.178 489.922 442.941"/><path style="fill: rgb(255, 239, 167); stroke-width: 1.741;" d="M 308.642 84.925 L 309.419 176.485 C 308.769 129.071 360.724 84.744 414.224 84.694 L 308.642 84.925 Z"/><path style="fill: rgb(255, 239, 167); stroke-width: 1.741;" d="M 42.869 318.515 L 43.354 375.834 C 42.949 346.15 75.474 318.401 108.967 318.368 L 42.869 318.515 Z"/><path style="fill: rgb(255, 239, 167); stroke-width: 1.741;" d="M 111.455 244.525 L 111.941 301.845 C 111.535 272.16 144.061 244.412 177.554 244.379 L 111.455 244.525 Z"/><path style="fill: rgb(255, 239, 167); stroke-width: 1.741; transform-box: fill-box; transform-origin: 50% 50%;" d="M 219.413 376.296 L 219.805 318.976 C 219.478 348.66 245.797 376.409 272.9 376.442 L 219.413 376.296 Z" transform="matrix(-1, 0, 0, -1, -0.000042, 0.00001)"/><rect x="315.723" y="314.604" width="162.971" height="118.811" rx="15" ry="15" style="fill: rgb(187, 233, 255);"/><path style="stroke-width: 1.741; fill: rgb(238, 250, 255); transform-box: fill-box; transform-origin: 50% 50%;" d="M 350.302 368.625 L 350.533 439.352 C 349.712 402.727 418.734 368.485 486.327 368.447 L 350.302 368.625 Z" transform="matrix(-1, 0, 0, -1, -0.000025, 0.00003)"/></svg>