<?xml version="1.0" encoding="utf-8"?>
<svg xmlns="http://www.w3.org/2000/svg" viewBox="0 0 500 500" xmlns:bx="https://boxy-svg.com" width="500px" height="500px">
  <defs>
    <bx:export>
      <bx:file format="svg"/>
    </bx:export>
  </defs>
  <path style="fill: rgb(247, 223, 23);" d="M 120.115 36.799 L 269.895 11.463 L 370.927 60.052 L 221.938 96.192 L 374.964 62.001 L 375.74 203.85 L 488.691 270.449 L 341.424 328.527 L 485.25 270.259 L 487.46 420.723 L 339.949 490.792 L 10.993 249.607 L 9.518 106.518 L 119.415 82.916"/>
  <polyline style="stroke: rgb(111, 111, 8); fill: rgb(233, 209, 16); stroke-width: 3px;" points="118.005 37.104 270.073 11.557 376.865 61.38 223.845 100.365 221.82 250.175 376.029 202.924 375.746 61.945 223.202 100.716"/>
  <g>
    <path style="fill: rgb(249, 247, 149);" d="M 213.42 24.024 L 121.352 37.954 L 119.273 155.07 C 101.193 144.945 185.955 82.095 216.362 99.123 L 167.354 58.768 C 151.999 43.634 199.113 21.765 213.42 24.024 Z"/>
    <path style="fill: rgb(249, 247, 149);" d="M 109.876 88.817 L 8.092 108.731 L 7.354 246.656 C -3.751 233.469 84.889 147.881 104.714 171.424 L 72.998 147.085 C 57.228 140.777 96.174 83.336 109.876 88.817 Z"/>
  </g>
  <polyline style="fill: none; stroke-width: 10px; stroke-linecap: round; stroke-linejoin: round; stroke: rgb(111, 111, 8);" points="121.788 37.781 270.502 13.074 379.321 60.635 376.52 201.853 490.547 272.468 376.617 202.769 490.364 272.113 341.473 330.739 490.774 272.729 488.986 419.985 342.21 494.479 11.042 249.607 11.042 108.731 115.815 174.024"/>
  <polyline style="fill: none; stroke-width: 4px; stroke: rgb(113, 113, 16);" points="340.735 491.529 342.21 332.214 222.99 251.115 222.374 250.953 223.591 101.537 119.815 38.016 118.727 172.162 57.751 133.785 13.255 105.781 117.252 86.604"/>
</svg>