<?xml version="1.0" encoding="utf-8"?>
<svg xmlns="http://www.w3.org/2000/svg" viewBox="0 0 500 500">
  <ellipse style="stroke: rgb(0, 0, 0); fill-opacity: 0.75; stroke-width: 4px; fill: none;" cx="249.458" cy="250.695" rx="236.323" ry="236.323"/>
  <path d="M 13.647 251.041 C 13.647 166.982 58.492 89.309 131.289 47.279 C 288.145 -43.282 484.215 69.919 484.215 251.041 C 484.215 335.1 439.37 412.773 366.573 454.803 C 209.717 545.364 13.647 432.163 13.647 251.041 Z M 77.268 251.041 C 77.268 288.15 89.247 323.553 110.474 352.522 L 335.383 102.736 C 335.176 102.616 334.97 102.496 334.763 102.376 C 220.321 36.303 77.268 118.895 77.268 251.041 Z M 163.1 399.706 C 277.542 465.779 420.594 383.187 420.594 251.041 C 420.594 213.208 408.143 177.148 386.134 147.871 L 160.67 398.276 C 161.475 398.759 162.285 399.235 163.1 399.706 Z" style="fill: rgb(255, 0, 0); stroke: rgb(0, 0, 0); stroke-width: 8px; fill-opacity: 0.75;"/>
</svg>